<svg xmlns="http://www.w3.org/2000/svg" width="1240" height="1240"><path d="M115.416 116.917c-.229.229-.406 24.079-.394 53l.021 52.583 24.729 18.676c42.935 32.426 112.772 85.252 138.994 105.138 15.641 11.861 25.077 19.653 24.77 20.454-.872 2.271-29.797 44.232-30.491 44.232-.832 0-113.006-54.427-137.784-66.853-10.032-5.031-18.698-9.147-19.257-9.147-.682 0-.933 23.734-.761 72.13l.257 72.131 32.5 9.358c63.346 18.24 81.511 23.63 82.4 24.45.93.859-7.056 43.727-8.434 45.274-.413.463-20.037-.547-43.609-2.244-23.571-1.697-47.47-3.379-53.107-3.736l-10.25-.65v66.143c0 62.329.101 66.144 1.75 66.14.963-.003 24.475-1.576 52.25-3.496s51.4-3.493 52.5-3.496c1.794-.004 2.493 2.245 6.768 21.746 2.622 11.962 4.76 22.48 4.75 23.372-.018 1.596-23.961 11.117-94.253 37.477L115.03 768.5l-.015 70.333c-.008 38.684.355 70.184.808 70 .452-.183 12.49-7.905 26.75-17.159 69.316-44.984 126.635-81.796 126.902-81.502C270.91 811.758 302 859.217 302 859.823c0 .993-17.963 18.189-102.5 98.126-36.85 34.845-70.937 67.168-75.75 71.829l-8.75 8.474V1125H235.909l16.896-23.75c66.803-93.902 120.476-168.795 121.145-169.041.746-.273 49.17 30.768 51.749 33.173.92.857-.39 4.38-5.623 15.118-3.752 7.7-11.767 24.125-17.811 36.5C357.677 1108.297 350 1124.09 350 1124.518c0 .265 29.363.474 65.25.465l65.25-.017 17.329-61.229c9.532-33.676 17.478-61.378 17.66-61.559.333-.333 50.639 9.584 51.046 10.063.121.142-.39 5.434-1.134 11.759-2.596 22.063-11.405 99.506-11.403 100.25.001.412 29.61.75 65.799.75h65.796l-2.22-18.75c-6.794-57.376-10.651-93.305-10.079-93.878 1.206-1.205 49.94-10.539 50.656-9.702.537.627 19.573 66.845 34.232 119.08l.912 3.25h130.785l-10.315-21.25c-5.674-11.687-22.972-47.085-38.44-78.662-15.468-31.576-28.118-57.901-28.111-58.5.008-.598 11.74-8.69 26.072-17.981 22.007-14.266 26.263-16.676 27.372-15.5 1.158 1.229 17.961 24.741 114.432 160.125l22.611 31.732 60.25.018 60.25.018-.006-43.75-.006-43.75-86-81.5c-47.3-44.825-89.467-84.729-93.705-88.675l-7.704-7.175 16.739-25.115 16.739-25.114 3.777 2.289c2.077 1.26 19.277 12.338 38.221 24.618A56046.755 56046.755 0 001085 884.011l38.5 24.854.259-69.183c.142-38.05.067-69.683-.167-70.296-.234-.613-4.625-2.727-9.759-4.699-5.133-1.971-31.383-11.971-58.333-22.222-26.95-10.252-49.165-18.802-49.366-19.001-.46-.456 9.478-45.41 10.199-46.13.291-.292 24.073 1.092 52.848 3.075 28.776 1.983 52.882 3.602 53.569 3.598.987-.005 1.25-13.906 1.25-66.147v-66.141l-9.75.638c-5.362.351-29.247 2.029-53.077 3.73-23.83 1.7-43.52 2.899-43.755 2.664-.987-.987-9.357-45.203-8.67-45.796.656-.566 55.099-16.533 99.752-29.255l15-4.273.257-72.214c.141-39.717.011-72.213-.289-72.213s-20.665 9.841-45.257 21.868c-85.17 41.656-110.962 54.132-111.834 54.095-.483-.02-7.779-10.188-16.214-22.595-14.26-20.973-15.208-22.651-13.5-23.882 1.01-.729 21.187-15.989 44.837-33.913 23.65-17.923 65.388-49.527 92.75-70.23l49.75-37.642V117.022l-41.75-.261-41.75-.261-36.959 37.5c-20.327 20.625-45.545 46.275-56.038 57a162099.783 162099.783 0 01-51.185 52.275l-32.105 32.776-17.585-12.132c-16.442-11.342-17.511-12.27-16.454-14.275.623-1.179 12.473-22.619 26.334-47.644C903.593 136.995 914 118.085 914 117.542c0-.298-31.892-.542-70.87-.542h-70.871l-2.735 7.75c-1.504 4.262-9.676 27.325-18.16 51.25a50558.253 50558.253 0 00-17.112 48.304c-1.399 3.986-2.032 4.718-3.719 4.301-1.118-.277-12.608-2.814-25.533-5.637-12.925-2.824-23.806-5.434-24.181-5.801-.374-.367 1.215-22.942 3.531-50.167l4.211-49.5-68.531-.5c-37.691-.275-68.665-.206-68.831.153-.166.359 1.287 19.484 3.228 42.5 1.942 23.016 3.817 45.467 4.168 49.892l.639 8.045-24.867 5.358c-13.677 2.946-25.48 5.401-26.229 5.455-.906.064-4.643-9.129-11.141-27.403-5.378-15.125-14.253-40.1-19.722-55.5l-9.944-28-71.177-.5c-58.618-.412-71.087-.268-70.671.817.535 1.394 23.764 43.537 61.8 112.122l22.981 41.438-2.871 2.29c-1.58 1.26-9.474 6.796-17.543 12.303l-14.671 10.014-87.697-89.471-87.697-89.471-41.976-.271c-23.087-.149-42.164-.083-42.393.146M407.64 385.773c-.272.44-.231 72.57.091 160.289l.586 159.49 30.591-5.235c16.826-2.88 32.054-5.499 33.842-5.821l3.25-.587v-82.038c0-59.202.306-81.936 1.1-81.671.604.201 4.91 6.426 9.569 13.833l8.469 13.467 42.681.5 42.681.5v65.16l-3 4.92c-2.385 3.911-4.315 5.587-9.406 8.17-3.522 1.788-7.572 3.257-8.999 3.265-5.384.032-5.28-.699-4.503 31.481l.72 29.798 13.094-.604c25.492-1.177 45.798-5.091 58.358-11.251 8.322-4.081 12.909-9.296 18.428-20.953l3.308-6.986.276-51.75.276-51.75h17.206l-.579-4.75c-.318-2.612-1.596-16.788-2.839-31.5L660.579 495h-5.79c-3.184 0-5.79-.337-5.792-.75l-.25-54.25-.247-53.5-34.75-.263-34.75-.263v105.76l-50.422.74c-27.733.407-50.915.436-51.517.064-.771-.477-1.079-16.377-1.043-53.857l.051-53.181-33.967-.263c-18.682-.145-34.19.097-34.462.536M693.5 529.979c-1.65.432-2.437.838-1.75.903 1.569.148 1.818 22.118.25 22.118-.55 0-1 .794-1 1.765 0 2.022-3.487 8.864-5.587 10.965-.777.777-1.413 1.8-1.413 2.274s-.857 1.133-1.904 1.465c-3.275 1.04-5.39 7.282-6.015 17.757l-.581 9.725 2.706.594c1.488.327 15.213.467 30.5.31 29.715-.303 34.15.236 42.053 5.115 3.972 2.452 7.232 7.554 7.237 11.325.004 2.618.211 2.755 3.254 2.158 1.788-.351 16.075-3.184 31.75-6.296l28.5-5.657-.235-5.5c-.363-8.486-2.225-18.534-5.468-29.5-5.736-19.402-12.61-28.336-27.467-35.701l-8.674-4.299-41.578-.152c-22.868-.084-42.928.2-44.578.631m-18.525 79.973c1.915 3.579.81 45.935-1.445 55.431-2.163 9.103-8.617 21.617-11.15 21.617-.494 0-1.419.832-2.054 1.849-1.025 1.641 2.732 5.554 33.362 34.75 48.648 46.371 51.042 48.958 50.361 54.401-.477 3.818-2.314 4-40.272 4-40.764 0-40.959-.027-46.5-6.337-3.082-3.511-6.277-11.744-6.277-16.178 0-1.183-.254-2.406-.565-2.717-.311-.311-15.412 4.386-33.557 10.437l-32.991 11.003.674 3.146c1.672 7.797 7.926 24.948 12.438 34.111 8.376 17.01 18.934 28.333 32.212 34.547l6.555 3.067 68.367-.312c67.364-.308 68.484-.346 76.367-2.561 17.933-5.039 32.415-15.052 38.662-26.73 1.464-2.737 3.714-9.701 5-15.476 1.947-8.745 2.338-13.341 2.338-27.5 0-19.474-1.248-25.118-7.401-33.483-2.986-4.059-128.961-125.228-141.517-136.119-3.422-2.968-3.752-3.087-2.607-.946" fill="undefined" fill-rule="evenodd"/></svg>